<svg xmlns="http://www.w3.org/2000/svg" xmlns:svg="http://www.w3.org/2000/svg" xmlns:xlink="http://www.w3.org/1999/xlink" id="svg2" width="853.333" height="853.333" version="1.2"><metadata id="metadata1690"/><desc id="desc4">Created by EvoPdf</desc><defs id="defs6"><linearGradient id="gradient1" x1="128" x2="128" y1="0" y2="256" gradientUnits="userSpaceOnUse"><stop id="stop9" offset="0" stop-color="#f5f5f6" stop-opacity="1"/><stop id="stop11" offset="1" stop-color="#ededee" stop-opacity="1"/></linearGradient><linearGradient id="gradient2" x1="0" x2="0" y1="0" y2="60" gradientUnits="userSpaceOnUse"><stop id="stop14" offset="0" stop-color="#ffda2f" stop-opacity="1"/><stop id="stop16" offset=".8" stop-color="#ffc500" stop-opacity="1"/><stop id="stop18" offset="1" stop-color="#ffc500" stop-opacity="1"/></linearGradient><linearGradient id="linearGradient5818" x1="128" x2="128" y1="0" y2="256" gradientUnits="userSpaceOnUse" xlink:href="#gradient1"/><linearGradient id="linearGradient5820" x1="128" x2="128" y1="0" y2="256" gradientUnits="userSpaceOnUse" xlink:href="#gradient1"/></defs><g id="g6661" transform="matrix(11.267595,0,0,11.267595,-6140.8393,-811.26684)"><g style="fill:url(#linearGradient5820);fill-rule:evenodd;stroke:none;stroke-width:1;stroke-linecap:square;stroke-linejoin:bevel" id="g84" transform="matrix(0.277344,0,0,0.277344,545,72)"><path style="fill:url(#linearGradient5818);fill-rule:evenodd" id="path86" d="M 256,128 C 256,198.692 198.692,256 128,256 57.3076,256 0,198.692 0,128 0,57.3076 57.3076,0 128,0 198.692,0 256,57.3076 256,128" vector-effect="none"/></g><path id="path94" d="m 614.28053,107.50003 c 0,18.65638 -15.12412,33.7805 -33.7805,33.7805 -18.65646,0 -33.7805,-15.12412 -33.7805,-33.7805 0,-18.656457 15.12404,-33.780497 33.7805,-33.780497 18.65638,0 33.7805,15.12404 33.7805,33.780497" vector-effect="none" style="fill:#fff;fill-opacity:1;fill-rule:evenodd;stroke:none;stroke-width:1;stroke-linecap:square;stroke-linejoin:bevel"/><path id="path100" d="m 603.35318,92.856269 -18.99807,18.582051 0,23.10275 c 0,0.41602 -1.80273,0.74883 -3.85508,0.77657 -1.96914,-0.0277 -3.85508,-0.36055 -3.85508,-0.77657 l 0,-23.10275 -18.99806,-18.582051 c -0.30508,-0.305079 0.66562,-1.747267 2.16328,-3.244925 1.49766,-1.497658 2.96758,-2.468362 3.24492,-2.163283 l 17.41721,17.001189 17.4172,-17.001189 c 0.30508,-0.305079 1.74727,0.665625 3.24493,2.163283 1.49765,1.497658 2.49609,2.939846 2.21875,3.244925" vector-effect="none" style="fill:#ec1c24;fill-opacity:1;fill-rule:evenodd;stroke:none;stroke-width:1;stroke-linecap:square;stroke-linejoin:bevel"/></g></svg>